TITLE ""
FILE "P1Q_t_0229-0238.mp3" MP3
  TRACK 01 AUDIO
    TITLE "P1Q_t_0229-0238_01"
    INDEX 01 00:00:00
  TRACK 02 AUDIO
    TITLE "P1Q_t_0229-0238_02"
    INDEX 01 00:01:27
  TRACK 03 AUDIO
    TITLE "P1Q_t_0229-0238_03"
    INDEX 01 00:01:51
  TRACK 04 AUDIO
    TITLE "P1Q_t_0229-0238_04"
    INDEX 01 00:02:60
  TRACK 05 AUDIO
    TITLE "P1Q_t_0229-0238_05"
    INDEX 01 00:03:07
  TRACK 06 AUDIO
    TITLE "P1Q_t_0229-0238_06"
    INDEX 01 00:07:01
  TRACK 07 AUDIO
    TITLE "P1Q_t_0229-0238_07"
    INDEX 01 00:07:46
  TRACK 08 AUDIO
    TITLE "P1Q_t_0229-0238_08"
    INDEX 01 00:08:57
  TRACK 09 AUDIO
    TITLE "P1Q_t_0229-0238_09"
    INDEX 01 00:09:07
  TRACK 10 AUDIO
    TITLE "P1Q_t_0229-0238_10"
    INDEX 01 00:10:66
  TRACK 11 AUDIO
    TITLE "P1Q_t_0229-0238_11"
    INDEX 01 00:11:12
  TRACK 12 AUDIO
    TITLE "P1Q_t_0229-0238_12"
    INDEX 01 00:15:12
  TRACK 13 AUDIO
    TITLE "P1Q_t_0229-0238_13"
    INDEX 01 00:15:59
  TRACK 14 AUDIO
    TITLE "P1Q_t_0229-0238_14"
    INDEX 01 00:17:11
  TRACK 15 AUDIO
    TITLE "P1Q_t_0229-0238_15"
    INDEX 01 00:17:30
  TRACK 16 AUDIO
    TITLE "P1Q_t_0229-0238_16"
    INDEX 01 00:19:27
  TRACK 17 AUDIO
    TITLE "P1Q_t_0229-0238_17"
    INDEX 01 00:19:45
  TRACK 18 AUDIO
    TITLE "P1Q_t_0229-0238_18"
    INDEX 01 00:25:18
  TRACK 19 AUDIO
    TITLE "P1Q_t_0229-0238_19"
    INDEX 01 00:25:65
  TRACK 20 AUDIO
    TITLE "P1Q_t_0229-0238_20"
    INDEX 01 00:27:01
  TRACK 21 AUDIO
    TITLE "P1Q_t_0229-0238_21"
    INDEX 01 00:27:25
  TRACK 22 AUDIO
    TITLE "P1Q_t_0229-0238_22"
    INDEX 01 00:28:50
  TRACK 23 AUDIO
    TITLE "P1Q_t_0229-0238_23"
    INDEX 01 00:28:71
  TRACK 24 AUDIO
    TITLE "P1Q_t_0229-0238_24"
    INDEX 01 00:33:33
  TRACK 25 AUDIO
    TITLE "P1Q_t_0229-0238_25"
    INDEX 01 00:34:05
  TRACK 26 AUDIO
    TITLE "P1Q_t_0229-0238_26"
    INDEX 01 00:35:18
  TRACK 27 AUDIO
    TITLE "P1Q_t_0229-0238_27"
    INDEX 01 00:35:40
  TRACK 28 AUDIO
    TITLE "P1Q_t_0229-0238_28"
    INDEX 01 00:41:33
  TRACK 29 AUDIO
    TITLE "P1Q_t_0229-0238_29"
    INDEX 01 00:41:54
  TRACK 30 AUDIO
    TITLE "P1Q_t_0229-0238_30"
    INDEX 01 00:46:01
  TRACK 31 AUDIO
    TITLE "P1Q_t_0229-0238_31"
    INDEX 01 00:46:48
  TRACK 32 AUDIO
    TITLE "P1Q_t_0229-0238_32"
    INDEX 01 00:47:57
  TRACK 33 AUDIO
    TITLE "P1Q_t_0229-0238_33"
    INDEX 01 00:48:07
  TRACK 34 AUDIO
    TITLE "P1Q_t_0229-0238_34"
    INDEX 01 00:52:19
  TRACK 35 AUDIO
    TITLE "P1Q_t_0229-0238_35"
    INDEX 01 00:52:38
  TRACK 36 AUDIO
    TITLE "P1Q_t_0229-0238_36"
    INDEX 01 00:57:49
  TRACK 37 AUDIO
    TITLE "P1Q_t_0229-0238_37"
    INDEX 01 00:58:23
  TRACK 38 AUDIO
    TITLE "P1Q_t_0229-0238_38"
    INDEX 01 00:59:33
  TRACK 39 AUDIO
    TITLE "P1Q_t_0229-0238_39"
    INDEX 01 00:59:54
  TRACK 40 AUDIO
    TITLE "P1Q_t_0229-0238_40"
    INDEX 01 01:02:09
  TRACK 41 AUDIO
    TITLE "P1Q_t_0229-0238_41"
    INDEX 01 01:02:29
  TRACK 42 AUDIO
    TITLE "P1Q_t_0229-0238_42"
    INDEX 01 01:06:68
  TRACK 43 AUDIO
    TITLE "P1Q_t_0229-0238_43"
    INDEX 01 01:07:42
  TRACK 44 AUDIO
    TITLE "P1Q_t_0229-0238_44"
    INDEX 01 01:08:65
  TRACK 45 AUDIO
    TITLE "P1Q_t_0229-0238_45"
    INDEX 01 01:09:11
  TRACK 46 AUDIO
    TITLE "P1Q_t_0229-0238_46"
    INDEX 01 01:12:31
  TRACK 47 AUDIO
    TITLE "P1Q_t_0229-0238_47"
    INDEX 01 01:12:51
  TRACK 48 AUDIO
    TITLE "P1Q_t_0229-0238_48"
    INDEX 01 01:17:54
  TRACK 49 AUDIO
    TITLE "P1Q_t_0229-0238_49"
    INDEX 01 01:18:24
  TRACK 50 AUDIO
    TITLE "P1Q_t_0229-0238_50"
    INDEX 01 01:19:35
  TRACK 51 AUDIO
    TITLE "P1Q_t_0229-0238_51"
    INDEX 01 01:19:59
  TRACK 52 AUDIO
    TITLE "P1Q_t_0229-0238_52"
    INDEX 01 01:22:08
  TRACK 53 AUDIO
    TITLE "P1Q_t_0229-0238_53"
    INDEX 01 01:22:28
  TRACK 54 AUDIO
    TITLE "P1Q_t_0229-0238_54"
    INDEX 01 01:25:50
  TRACK 55 AUDIO
    TITLE "P1Q_t_0229-0238_55"
    INDEX 01 01:26:22
  TRACK 56 AUDIO
    TITLE "P1Q_t_0229-0238_56"
    INDEX 01 01:27:51
  TRACK 57 AUDIO
    TITLE "P1Q_t_0229-0238_57"
    INDEX 01 01:27:70
  TRACK 58 AUDIO
    TITLE "P1Q_t_0229-0238_58"
    INDEX 01 01:30:02
  TRACK 59 AUDIO
    TITLE "P1Q_t_0229-0238_59"
    INDEX 01 01:30:23
  TRACK 60 AUDIO
    TITLE "P1Q_t_0229-0238_60"
    INDEX 01 01:34:39
